<svg width="75" height="100" viewBox="0 0 75 100" fill="none" xmlns="http://www.w3.org/2000/svg">
<rect width="75" height="100" rx="7" fill="#FFF3EB"/>
<mask id="mask0_1_16" style="mask-type:luminance" maskUnits="userSpaceOnUse" x="16" y="18" width="42" height="42">
<path d="M58 18H16V60H58V18Z" fill="white"/>
</mask>
<g mask="url(#mask0_1_16)">
<path d="M47.2204 34.8525L49.6881 34.6959C49.6922 34.6955 49.6967 34.6952 49.7012 34.6949C51.4597 34.5462 53.0382 33.6232 54.0322 32.1617L55.983 29.294C57.681 26.7974 58.3388 23.782 57.8348 20.8035C57.7358 20.2185 57.4371 19.6795 56.9943 19.2862C56.5511 18.8926 55.9814 18.6601 55.3899 18.6319C52.3771 18.4874 49.4692 19.5035 47.1992 21.4919L44.5915 23.7762C43.2627 24.9401 42.5372 26.6208 42.6007 28.3883C42.601 28.3924 42.601 28.3969 42.6013 28.4014L42.742 30.8746C42.7968 31.8387 42.444 32.79 41.7759 33.4829L21.4032 54.4527C20.8578 55.0226 20.5762 55.8044 20.6105 56.6542C20.6483 57.5898 21.0767 58.5087 21.7567 59.1126C22.3709 59.6581 23.2153 59.9689 24.0593 59.9689C24.1497 59.9689 24.24 59.9653 24.3301 59.958C25.1763 59.8902 25.9175 59.5165 26.4193 58.902L44.7505 36.1278C45.3583 35.3784 46.2588 34.9135 47.2204 34.8525ZM43.7719 35.3341L25.4423 58.1064C25.1622 58.4493 24.7316 58.6605 24.2298 58.7007C23.6328 58.7485 23.0208 58.5495 22.592 58.1687C22.1633 57.7876 21.8928 57.2026 21.8688 56.6032C21.8483 56.0994 22.0056 55.6458 22.3088 55.3292L42.6798 34.361C43.5931 33.4142 44.0737 32.1174 43.9994 30.803L43.8587 28.3363C43.8109 26.9528 44.3797 25.6374 45.4202 24.7259L48.0279 22.4416C50.0517 20.669 52.6454 19.7639 55.33 19.8917C55.6357 19.9065 55.9298 20.0265 56.1589 20.2301C56.388 20.4333 56.5422 20.712 56.5934 21.0141C57.0427 23.6696 56.4563 26.3576 54.9426 28.5832L52.9917 31.4512C52.2134 32.5955 50.9781 33.3188 49.6015 33.4373L47.1406 33.5933C45.8294 33.6768 44.6021 34.3106 43.7719 35.3341Z" fill="#E65E00"/>
<path d="M56.837 54.2935L43.1771 41.8276C42.9201 41.5929 42.5221 41.6115 42.2876 41.869C42.0537 42.1265 42.0723 42.5256 42.3292 42.7603L55.9856 55.2232C56.3105 55.5241 56.4947 55.9675 56.5047 56.4715C56.5165 57.0713 56.2816 57.6713 55.8763 58.0775C55.4713 58.4833 54.8733 58.7193 54.2735 58.7071C53.7704 58.6971 53.3279 58.5125 53.0308 58.1905L40.8588 44.8009C40.6245 44.5431 40.2262 44.5248 39.9692 44.7592C39.7122 44.9939 39.6937 45.393 39.9279 45.6505L52.1028 59.0432C52.638 59.6231 53.4 59.9518 54.2488 59.9685C54.2709 59.9689 54.2927 59.9692 54.3148 59.9692C55.2271 59.9692 56.1394 59.5984 56.7665 58.9697C57.4093 58.3257 57.7819 57.3827 57.7633 56.4468C57.7467 55.5963 57.4189 54.8328 56.837 54.2935Z" fill="#E65E00"/>
<path d="M23.5973 34.7331C24.6394 35.695 25.9932 36.2434 27.4095 36.2774C27.414 36.2777 27.4185 36.2777 27.4227 36.2777L29.8952 36.2854C30.859 36.2883 31.7854 36.6983 32.4356 37.4082L33.5247 38.6061C33.6491 38.7428 33.8192 38.8122 33.9903 38.8122C34.1416 38.8122 34.2935 38.7579 34.4139 38.6478C34.6712 38.4131 34.6898 38.014 34.4556 37.7565L33.3648 36.5571C32.4766 35.5868 31.2134 35.0282 29.8993 35.0237L27.4336 35.016C26.338 34.988 25.2905 34.5678 24.4788 33.8316L17.3136 25.2971C17.2405 25.2098 17.246 25.0833 17.3264 25.0027C17.3815 24.9471 17.4462 24.9391 17.4799 24.9391C17.5135 24.9391 17.5783 24.9471 17.6337 25.0027L24.1558 31.5379C24.8006 32.1839 25.8497 32.1839 26.4944 31.5376L27.2609 30.7699L28.6217 29.406L29.3885 28.6377C30.0333 27.9918 30.0333 26.9406 29.3885 26.2946L22.8664 19.7597C22.7818 19.675 22.7818 19.5366 22.8664 19.4518C22.9468 19.3713 23.0731 19.3658 23.1602 19.439L31.6781 26.6186C32.4131 27.4315 32.8326 28.4814 32.8605 29.5788L32.8678 32.0497C32.8723 33.366 33.4302 34.6316 34.3998 35.5236L35.5669 36.5885C35.8242 36.8232 36.2222 36.8046 36.4564 36.5471C36.6903 36.2893 36.6717 35.8905 36.4147 35.6558L35.2496 34.5925C34.5392 33.9394 34.1304 33.0109 34.1271 32.0455L34.1195 29.5682C34.1195 29.5637 34.1195 29.5592 34.1191 29.5547C34.0852 28.1356 33.5379 26.7791 32.5778 25.735C32.5599 25.7154 32.5407 25.6968 32.5202 25.6795L23.9706 18.4736C23.3797 17.9753 22.5223 18.0125 21.9762 18.5596C21.4004 19.1366 21.4004 20.075 21.9762 20.6517L28.4984 27.1869C28.6522 27.341 28.6522 27.5917 28.4984 27.7458L28.177 28.0675L20.9079 20.7846C20.6621 20.538 20.2635 20.538 20.0177 20.7846C19.772 21.0308 19.772 21.4302 20.0177 21.6765L27.2868 28.9598L26.8158 29.4314L19.5467 22.1484C19.3009 21.9022 18.9023 21.9022 18.6565 22.1484C18.4104 22.3947 18.4104 22.7941 18.6565 23.0404L25.9253 30.3236L25.6042 30.6457C25.4504 30.7998 25.2001 30.7998 25.0463 30.6457L18.5239 24.1108C18.2451 23.8314 17.8743 23.6773 17.4799 23.6773C17.0854 23.6773 16.7147 23.8314 16.4359 24.1108C15.8899 24.6579 15.853 25.517 16.35 26.1094L23.5422 34.6753C23.5592 34.6959 23.5778 34.7151 23.5973 34.7331Z" fill="#E65E00"/>
</g>
<path d="M10.09 93.178C9.802 93.178 9.472 93.022 9.1 92.71C8.728 92.398 8.338 91.99 7.93 91.486C7.534 90.982 7.138 90.43 6.742 89.83C6.358 89.218 5.992 88.606 5.644 87.994C5.296 87.382 5.002 86.83 4.762 86.338C4.438 87.442 4.126 88.534 3.826 89.614C3.538 90.682 3.262 91.672 2.998 92.584C2.65 92.584 2.32 92.488 2.008 92.296C1.708 92.104 1.558 91.852 1.558 91.54C1.558 91.408 1.588 91.252 1.648 91.072C1.708 90.892 1.762 90.718 1.81 90.55C2.158 89.506 2.47 88.576 2.746 87.76C3.022 86.932 3.28 86.176 3.52 85.492C3.772 84.796 4.024 84.112 4.276 83.44C4.54 82.756 4.828 82.042 5.14 81.298C5.452 80.554 5.812 79.714 6.22 78.778C5.752 78.874 5.338 79 4.978 79.156C4.63 79.312 4.342 79.45 4.114 79.57C3.898 79.69 3.748 79.75 3.664 79.75C3.604 79.75 3.514 79.714 3.394 79.642C3.274 79.558 3.166 79.462 3.07 79.354C2.986 79.234 2.944 79.132 2.944 79.048C3.28 78.916 3.67 78.772 4.114 78.616C4.57 78.46 5.068 78.328 5.608 78.22C6.148 78.1 6.706 78.04 7.282 78.04C7.822 78.04 8.38 78.106 8.956 78.238C9.532 78.358 10.066 78.556 10.558 78.832C11.05 79.108 11.446 79.468 11.746 79.912C12.046 80.356 12.196 80.89 12.196 81.514C12.196 82.198 12.016 82.774 11.656 83.242C11.308 83.698 10.852 84.07 10.288 84.358C9.736 84.646 9.142 84.868 8.506 85.024C7.882 85.18 7.288 85.288 6.724 85.348C6.172 85.396 5.722 85.426 5.374 85.438C5.89 86.242 6.394 87.028 6.886 87.796C7.39 88.564 7.978 89.326 8.65 90.082C9.322 90.838 10.168 91.606 11.188 92.386C11.14 92.626 10.99 92.818 10.738 92.962C10.498 93.106 10.282 93.178 10.09 93.178ZM5.176 84.898C5.848 84.85 6.508 84.742 7.156 84.574C7.816 84.406 8.41 84.172 8.938 83.872C9.478 83.572 9.904 83.2 10.216 82.756C10.54 82.3 10.702 81.766 10.702 81.154C10.702 80.53 10.546 80.044 10.234 79.696C9.922 79.336 9.52 79.078 9.028 78.922C8.536 78.766 8.02 78.682 7.48 78.67C7.072 79.474 6.676 80.422 6.292 81.514C5.908 82.594 5.536 83.722 5.176 84.898ZM13.7579 91.792C12.9899 91.792 12.3959 91.582 11.9759 91.162C11.5679 90.754 11.3639 90.238 11.3639 89.614C11.3639 89.086 11.4959 88.528 11.7599 87.94C12.0359 87.34 12.4019 86.782 12.8579 86.266C13.3139 85.738 13.8179 85.312 14.3699 84.988C14.9219 84.664 15.4739 84.502 16.0259 84.502C16.3379 84.502 16.6319 84.586 16.9079 84.754C17.1959 84.91 17.3399 85.228 17.3399 85.708C17.3399 86.164 17.2079 86.59 16.9439 86.986C16.6799 87.382 16.3259 87.736 15.8819 88.048C15.4379 88.36 14.9459 88.618 14.4059 88.822C13.8779 89.014 13.3439 89.14 12.8039 89.2C12.7919 89.248 12.7799 89.302 12.7679 89.362C12.7679 89.41 12.7679 89.494 12.7679 89.614C12.7679 89.674 12.7739 89.782 12.7859 89.938C12.8099 90.082 12.8639 90.238 12.9479 90.406C13.0319 90.574 13.1699 90.718 13.3619 90.838C13.5539 90.958 13.8179 91.018 14.1539 91.018C14.6579 91.018 15.1619 90.88 15.6659 90.604C16.1819 90.316 16.6619 89.938 17.1059 89.47C17.5619 89.002 17.9399 88.48 18.2399 87.904L18.5999 88.192C18.2759 88.912 17.8559 89.542 17.3399 90.082C16.8359 90.622 16.2719 91.042 15.6479 91.342C15.0359 91.642 14.4059 91.792 13.7579 91.792ZM13.0019 88.534C13.3139 88.498 13.6619 88.39 14.0459 88.21C14.4299 88.03 14.7959 87.802 15.1439 87.526C15.5039 87.25 15.7979 86.95 16.0259 86.626C16.2539 86.29 16.3679 85.954 16.3679 85.618C16.3679 85.486 16.3439 85.396 16.2959 85.348C16.2479 85.3 16.1699 85.276 16.0619 85.276C15.7859 85.276 15.4979 85.378 15.1979 85.582C14.8979 85.774 14.6039 86.032 14.3159 86.356C14.0279 86.668 13.7699 87.016 13.5419 87.4C13.3139 87.784 13.1339 88.162 13.0019 88.534ZM19.9107 91.918C19.3107 91.918 18.8247 91.792 18.4527 91.54C18.0927 91.3 17.8347 90.994 17.6787 90.622C17.5227 90.238 17.4447 89.848 17.4447 89.452C17.4447 89.104 17.4927 88.834 17.5887 88.642C17.6847 88.45 17.8047 88.312 17.9487 88.228C18.0927 88.132 18.2247 88.06 18.3447 88.012C18.4767 87.964 18.5727 87.91 18.6327 87.85C18.9327 87.538 19.2387 87.178 19.5507 86.77C19.8747 86.35 20.1507 85.888 20.3787 85.384V85.204C20.3787 84.724 20.4567 84.388 20.6127 84.196C20.7807 83.992 20.9727 83.89 21.1887 83.89C21.3327 83.89 21.4347 83.926 21.4947 83.998C21.5667 84.07 21.6087 84.154 21.6207 84.25C21.6207 84.322 21.6027 84.406 21.5667 84.502C21.5427 84.598 21.5307 84.73 21.5307 84.898C21.5307 85.258 21.6147 85.672 21.7827 86.14C21.9627 86.596 22.1367 87.082 22.3047 87.598C22.4847 88.114 22.5747 88.642 22.5747 89.182C22.5747 89.326 22.5687 89.458 22.5567 89.578C22.5447 89.698 22.5267 89.812 22.5027 89.92C22.8747 89.824 23.2407 89.62 23.6007 89.308C23.9607 88.984 24.3027 88.51 24.6267 87.886L24.8427 88.048C24.6147 88.732 24.2847 89.284 23.8527 89.704C23.4207 90.112 22.9167 90.364 22.3407 90.46C22.1487 90.952 21.8307 91.318 21.3867 91.558C20.9547 91.798 20.4627 91.918 19.9107 91.918ZM21.0807 89.884C21.1047 89.8 21.1167 89.704 21.1167 89.596C21.1287 89.476 21.1347 89.386 21.1347 89.326C21.1227 88.786 21.0507 88.252 20.9187 87.724C20.7867 87.196 20.6547 86.656 20.5227 86.104C20.3067 86.476 20.0547 86.878 19.7667 87.31C19.4787 87.742 19.2087 88.09 18.9567 88.354C19.1487 88.678 19.4307 88.984 19.8027 89.272C20.1747 89.56 20.6007 89.764 21.0807 89.884ZM19.7847 91.126C20.0247 91.126 20.2467 91.066 20.4507 90.946C20.6547 90.826 20.8167 90.652 20.9367 90.424C20.4447 90.316 20.0007 90.124 19.6047 89.848C19.2087 89.572 18.9027 89.29 18.6867 89.002C18.5187 89.038 18.4347 89.2 18.4347 89.488C18.4347 89.884 18.5487 90.256 18.7767 90.604C19.0047 90.952 19.3407 91.126 19.7847 91.126ZM25.7532 91.828C25.2252 91.828 24.7992 91.672 24.4752 91.36C24.1512 91.048 23.9892 90.574 23.9892 89.938C23.9892 89.446 24.0792 88.834 24.2592 88.102C24.4512 87.37 24.6912 86.614 24.9792 85.834C24.8952 85.81 24.7932 85.792 24.6732 85.78C24.5652 85.756 24.4572 85.72 24.3492 85.672V85.114C24.5412 85.138 24.6972 85.156 24.8172 85.168C24.9492 85.18 25.0812 85.192 25.2132 85.204C25.4652 84.568 25.7352 83.956 26.0232 83.368C26.3232 82.768 26.6172 82.234 26.9052 81.766C27.2052 81.298 27.4872 80.932 27.7512 80.668C28.0152 80.392 28.2492 80.254 28.4532 80.254C28.5732 80.254 28.6872 80.302 28.7952 80.398C28.9032 80.482 28.9572 80.608 28.9572 80.776C28.9572 81.016 28.8312 81.358 28.5792 81.802C28.3392 82.246 28.0392 82.768 27.6792 83.368C27.3192 83.956 26.9712 84.586 26.6352 85.258H27.1932C27.7212 85.258 28.1952 85.252 28.6152 85.24C29.0472 85.216 29.4852 85.18 29.9292 85.132V85.726C29.2692 85.786 28.6632 85.834 28.1112 85.87C27.5592 85.906 27.0312 85.93 26.5272 85.942H26.3112C26.0592 86.53 25.8372 87.136 25.6452 87.76C25.4652 88.372 25.3752 88.972 25.3752 89.56C25.3752 90.052 25.4532 90.4 25.6092 90.604C25.7652 90.808 26.0112 90.91 26.3472 90.91C26.9472 90.91 27.5592 90.64 28.1832 90.1C28.8192 89.548 29.3712 88.804 29.8392 87.868L30.0912 88.048C29.7792 88.756 29.3892 89.398 28.9212 89.974C28.4652 90.55 27.9672 91 27.4272 91.324C26.8872 91.66 26.3292 91.828 25.7532 91.828ZM30.3088 91.846C29.9128 91.846 29.5708 91.714 29.2828 91.45C28.9828 91.186 28.8328 90.79 28.8328 90.262C28.8328 89.842 28.9288 89.386 29.1208 88.894C29.3128 88.402 29.5768 87.916 29.9128 87.436C30.2488 86.956 30.6328 86.524 31.0648 86.14C31.4968 85.744 31.9588 85.426 32.4508 85.186C32.9428 84.946 33.4348 84.826 33.9268 84.826C34.4428 84.826 34.8808 84.958 35.2408 85.222C35.6008 85.486 35.7808 85.834 35.7808 86.266C35.7808 86.59 35.6668 86.824 35.4388 86.968C35.2108 87.112 34.9408 87.154 34.6288 87.094C34.6528 86.986 34.6708 86.878 34.6828 86.77C34.7068 86.662 34.7188 86.548 34.7188 86.428C34.7188 86.188 34.6708 85.972 34.5748 85.78C34.4788 85.588 34.2748 85.492 33.9628 85.492C33.6268 85.492 33.2848 85.606 32.9368 85.834C32.5888 86.062 32.2528 86.362 31.9288 86.734C31.6168 87.094 31.3348 87.496 31.0828 87.94C30.8308 88.372 30.6328 88.798 30.4888 89.218C30.3448 89.638 30.2728 90.016 30.2728 90.352C30.2728 90.736 30.4108 90.928 30.6868 90.928C30.9628 90.928 31.2688 90.796 31.6048 90.532C31.9408 90.256 32.2768 89.914 32.6128 89.506C32.9608 89.098 33.2908 88.684 33.6028 88.264C33.9148 87.832 34.1848 87.466 34.4128 87.166C34.4488 87.106 34.4968 87.076 34.5568 87.076C34.6048 87.088 34.6948 87.118 34.8268 87.166C34.9708 87.202 35.1028 87.262 35.2228 87.346C35.3428 87.43 35.4028 87.538 35.4028 87.67C35.4028 87.826 35.3188 88.042 35.1508 88.318C34.9828 88.582 34.8088 88.87 34.6288 89.182C34.4608 89.494 34.3768 89.782 34.3768 90.046C34.3768 90.202 34.4188 90.352 34.5028 90.496C34.5868 90.628 34.7248 90.694 34.9168 90.694C35.2048 90.694 35.6068 90.484 36.1228 90.064C36.6508 89.632 37.1848 88.906 37.7248 87.886L38.0668 88.228C37.6228 89.212 37.0708 90.01 36.4108 90.622C35.7508 91.234 35.0848 91.54 34.4128 91.54C33.9208 91.54 33.5548 91.384 33.3148 91.072C33.0748 90.76 32.9428 90.424 32.9188 90.064V89.974C32.4388 90.55 31.9948 91.006 31.5868 91.342C31.1908 91.678 30.7648 91.846 30.3088 91.846ZM38.6668 91.54C38.2588 91.54 37.9228 91.354 37.6588 90.982C37.4068 90.598 37.2808 90.16 37.2808 89.668C37.2808 89.332 37.3348 88.936 37.4428 88.48C37.5508 88.024 37.6888 87.58 37.8568 87.148C38.0368 86.716 38.2168 86.356 38.3968 86.068C38.5888 85.78 38.7628 85.636 38.9188 85.636C39.0028 85.636 39.1288 85.684 39.2968 85.78C39.4768 85.864 39.6328 85.972 39.7648 86.104C39.6328 86.296 39.4708 86.59 39.2788 86.986C39.0988 87.382 38.9368 87.808 38.7928 88.264C38.6488 88.72 38.5768 89.134 38.5768 89.506C38.5768 89.554 38.5828 89.668 38.5948 89.848C38.6188 90.028 38.6668 90.196 38.7388 90.352C38.8108 90.508 38.9368 90.586 39.1168 90.586C39.3208 90.586 39.5368 90.478 39.7648 90.262C40.0048 90.034 40.2448 89.746 40.4848 89.398C40.7368 89.038 40.9768 88.654 41.2048 88.246C41.4448 87.838 41.6548 87.442 41.8348 87.058C42.0268 86.674 42.1828 86.35 42.3028 86.086C42.4108 86.098 42.5488 86.128 42.7168 86.176C42.8968 86.224 43.0528 86.29 43.1848 86.374C43.3168 86.446 43.3828 86.554 43.3828 86.698C43.3828 86.734 43.3228 86.884 43.2028 87.148C43.0948 87.4 42.9628 87.706 42.8068 88.066C42.6628 88.426 42.5308 88.798 42.4108 89.182C42.3028 89.554 42.2488 89.884 42.2488 90.172C42.2488 90.34 42.2788 90.49 42.3388 90.622C42.4108 90.742 42.5428 90.802 42.7348 90.802C42.9868 90.802 43.2868 90.688 43.6348 90.46C43.9828 90.232 44.3428 89.902 44.7148 89.47C45.0868 89.038 45.4168 88.522 45.7048 87.922L45.9748 88.138C45.7108 88.786 45.3688 89.368 44.9488 89.884C44.5288 90.4 44.0788 90.802 43.5988 91.09C43.1188 91.39 42.6508 91.54 42.1948 91.54C41.8468 91.54 41.5828 91.456 41.4028 91.288C41.2348 91.132 41.1208 90.928 41.0608 90.676C41.0008 90.412 40.9648 90.148 40.9528 89.884V89.524C40.7488 89.848 40.5268 90.166 40.2868 90.478C40.0468 90.778 39.7888 91.03 39.5128 91.234C39.2488 91.438 38.9668 91.54 38.6668 91.54ZM48.5741 91.468C48.1301 91.468 47.7701 91.348 47.4941 91.108C47.2181 90.88 47.0801 90.568 47.0801 90.172C47.0801 89.836 47.1641 89.476 47.3321 89.092C47.5001 88.708 47.6681 88.33 47.8361 87.958C48.0161 87.586 48.1061 87.256 48.1061 86.968C48.1061 86.692 48.0161 86.464 47.8361 86.284C47.6561 86.092 47.4461 85.936 47.2061 85.816C46.9421 86.476 46.6421 87.118 46.3061 87.742C45.9821 88.354 45.7181 88.834 45.5141 89.182L45.2441 88.66C45.4121 88.348 45.6341 87.904 45.9101 87.328C46.1861 86.752 46.4501 86.11 46.7021 85.402C46.5821 85.282 46.5221 85.12 46.5221 84.916C46.5221 84.604 46.6181 84.31 46.8101 84.034C47.0021 83.758 47.1881 83.62 47.3681 83.62C47.5121 83.62 47.6141 83.704 47.6741 83.872C47.7461 84.028 47.7821 84.136 47.7821 84.196C47.7821 84.256 47.7521 84.364 47.6921 84.52C47.6441 84.676 47.6081 84.79 47.5841 84.862C47.5961 84.994 47.6981 85.126 47.8901 85.258C48.0941 85.378 48.3221 85.522 48.5741 85.69C48.8261 85.858 49.0481 86.068 49.2401 86.32C49.4321 86.572 49.5281 86.89 49.5281 87.274C49.5281 87.622 49.4501 87.976 49.2941 88.336C49.1381 88.696 48.9821 89.032 48.8261 89.344C48.6701 89.656 48.5921 89.926 48.5921 90.154C48.5921 90.322 48.6341 90.436 48.7181 90.496C48.8141 90.544 48.9221 90.568 49.0421 90.568C49.3301 90.568 49.6301 90.484 49.9421 90.316C50.2541 90.136 50.5601 89.908 50.8601 89.632C51.1601 89.356 51.4241 89.068 51.6521 88.768C51.8801 88.456 52.0541 88.174 52.1741 87.922L52.6061 88.246C52.3781 88.762 52.0481 89.272 51.6161 89.776C51.1841 90.268 50.7041 90.676 50.1761 91C49.6481 91.312 49.1141 91.468 48.5741 91.468ZM52.7912 91.846C52.3952 91.846 52.0532 91.714 51.7652 91.45C51.4652 91.186 51.3152 90.79 51.3152 90.262C51.3152 89.842 51.4112 89.386 51.6032 88.894C51.7952 88.402 52.0592 87.916 52.3952 87.436C52.7312 86.956 53.1152 86.524 53.5472 86.14C53.9792 85.744 54.4412 85.426 54.9332 85.186C55.4252 84.946 55.9172 84.826 56.4092 84.826C56.9252 84.826 57.3632 84.958 57.7232 85.222C58.0832 85.486 58.2632 85.834 58.2632 86.266C58.2632 86.59 58.1492 86.824 57.9212 86.968C57.6932 87.112 57.4232 87.154 57.1112 87.094C57.1352 86.986 57.1532 86.878 57.1652 86.77C57.1892 86.662 57.2012 86.548 57.2012 86.428C57.2012 86.188 57.1532 85.972 57.0572 85.78C56.9612 85.588 56.7572 85.492 56.4452 85.492C56.1092 85.492 55.7672 85.606 55.4192 85.834C55.0712 86.062 54.7352 86.362 54.4112 86.734C54.0992 87.094 53.8172 87.496 53.5652 87.94C53.3132 88.372 53.1152 88.798 52.9712 89.218C52.8272 89.638 52.7552 90.016 52.7552 90.352C52.7552 90.736 52.8932 90.928 53.1692 90.928C53.4452 90.928 53.7512 90.796 54.0872 90.532C54.4232 90.256 54.7592 89.914 55.0952 89.506C55.4432 89.098 55.7732 88.684 56.0852 88.264C56.3972 87.832 56.6672 87.466 56.8952 87.166C56.9312 87.106 56.9792 87.076 57.0392 87.076C57.0872 87.088 57.1772 87.118 57.3092 87.166C57.4532 87.202 57.5852 87.262 57.7052 87.346C57.8252 87.43 57.8852 87.538 57.8852 87.67C57.8852 87.826 57.8012 88.042 57.6332 88.318C57.4652 88.582 57.2912 88.87 57.1112 89.182C56.9432 89.494 56.8592 89.782 56.8592 90.046C56.8592 90.202 56.9012 90.352 56.9852 90.496C57.0692 90.628 57.2072 90.694 57.3992 90.694C57.6872 90.694 58.0892 90.484 58.6052 90.064C59.1332 89.632 59.6672 88.906 60.2072 87.886L60.5492 88.228C60.1052 89.212 59.5532 90.01 58.8932 90.622C58.2332 91.234 57.5672 91.54 56.8952 91.54C56.4032 91.54 56.0372 91.384 55.7972 91.072C55.5572 90.76 55.4252 90.424 55.4012 90.064V89.974C54.9212 90.55 54.4772 91.006 54.0692 91.342C53.6732 91.678 53.2472 91.846 52.7912 91.846ZM65.8473 91.36C65.3793 91.36 65.0193 91.24 64.7673 91C64.5273 90.772 64.4072 90.478 64.4072 90.118C64.4072 89.878 64.4492 89.626 64.5332 89.362C64.6173 89.086 64.7013 88.81 64.7853 88.534C64.8693 88.258 64.9113 87.994 64.9113 87.742C64.9113 87.478 64.8453 87.298 64.7133 87.202C64.5933 87.094 64.4492 87.04 64.2812 87.04C63.9213 87.04 63.5493 87.19 63.1653 87.49C62.7933 87.778 62.4273 88.144 62.0673 88.588C61.7193 89.032 61.3893 89.494 61.0773 89.974C60.7653 90.454 60.4953 90.886 60.2673 91.27C60.0393 91.27 59.8233 91.228 59.6192 91.144C59.4152 91.072 59.2412 90.94 59.0972 90.748C59.1092 90.688 59.1812 90.508 59.3132 90.208C59.4332 89.896 59.5712 89.53 59.7272 89.11C59.8833 88.678 60.0213 88.228 60.1413 87.76C60.2613 87.292 60.3213 86.866 60.3213 86.482C60.4053 86.386 60.5313 86.29 60.6993 86.194C60.8793 86.098 61.0653 86.05 61.2573 86.05C61.6773 86.05 61.8873 86.23 61.8873 86.59C61.8873 86.914 61.7853 87.448 61.5813 88.192C61.8933 87.772 62.2353 87.376 62.6073 87.004C62.9793 86.632 63.3633 86.332 63.7593 86.104C64.1673 85.864 64.5753 85.744 64.9833 85.744C65.4993 85.744 65.8773 85.918 66.1173 86.266C66.3693 86.614 66.4953 86.998 66.4953 87.418C66.4953 87.778 66.4353 88.114 66.3153 88.426C66.1953 88.738 66.0753 89.032 65.9553 89.308C65.8473 89.584 65.7933 89.854 65.7933 90.118C65.7933 90.31 65.8353 90.448 65.9193 90.532C66.0153 90.604 66.1173 90.64 66.2253 90.64C66.5133 90.64 66.8133 90.502 67.1253 90.226C67.4373 89.95 67.7313 89.602 68.0073 89.182C68.2953 88.75 68.5473 88.318 68.7633 87.886L69.0693 88.138C68.8173 88.726 68.5293 89.266 68.2053 89.758C67.8933 90.238 67.5393 90.628 67.1433 90.928C66.7593 91.216 66.3273 91.36 65.8473 91.36ZM69.9271 91.828C69.3991 91.828 68.9731 91.672 68.6491 91.36C68.3251 91.048 68.1631 90.574 68.1631 89.938C68.1631 89.446 68.2531 88.834 68.4331 88.102C68.6251 87.37 68.8651 86.614 69.1531 85.834C69.0691 85.81 68.9671 85.792 68.8471 85.78C68.7391 85.756 68.6311 85.72 68.5231 85.672V85.114C68.7151 85.138 68.8711 85.156 68.9911 85.168C69.1231 85.18 69.2551 85.192 69.3871 85.204C69.6391 84.568 69.9091 83.956 70.1971 83.368C70.4971 82.768 70.7911 82.234 71.0791 81.766C71.3791 81.298 71.6611 80.932 71.9251 80.668C72.1891 80.392 72.4231 80.254 72.6271 80.254C72.7471 80.254 72.8611 80.302 72.9691 80.398C73.0771 80.482 73.1311 80.608 73.1311 80.776C73.1311 81.016 73.0051 81.358 72.7531 81.802C72.5131 82.246 72.2131 82.768 71.8531 83.368C71.4931 83.956 71.1451 84.586 70.8091 85.258H71.3671C71.8951 85.258 72.3691 85.252 72.7891 85.24C73.2211 85.216 73.6591 85.18 74.1031 85.132V85.726C73.4431 85.786 72.8371 85.834 72.2851 85.87C71.7331 85.906 71.2051 85.93 70.7011 85.942H70.4851C70.2331 86.53 70.0111 87.136 69.8191 87.76C69.6391 88.372 69.5491 88.972 69.5491 89.56C69.5491 90.052 69.6271 90.4 69.7831 90.604C69.9391 90.808 70.1851 90.91 70.5211 90.91C71.1211 90.91 71.7331 90.64 72.3571 90.1C72.9931 89.548 73.5451 88.804 74.0131 87.868L74.2651 88.048C73.9531 88.756 73.5631 89.398 73.0951 89.974C72.6391 90.55 72.1411 91 71.6011 91.324C71.0611 91.66 70.5031 91.828 69.9271 91.828Z" fill="#E65E00"/>
<path d="M37 73.5C56.0538 73.5 71.5 58.0538 71.5 39C71.5 19.9462 56.0538 4.5 37 4.5C17.9462 4.5 2.5 19.9462 2.5 39C2.5 58.0538 17.9462 73.5 37 73.5Z" stroke="#E65E00"/>
<path d="M37 71.4C54.894 71.4 69.4 56.894 69.4 39C69.4 21.106 54.894 6.60001 37 6.60001C19.106 6.60001 4.60001 21.106 4.60001 39C4.60001 56.894 19.106 71.4 37 71.4Z" stroke="#E65E00"/>
<circle cx="65" cy="10" r="10" fill="#00F068"/>
</svg>
